<svg xmlns="http://www.w3.org/2000/svg" xmlns:xlink="http://www.w3.org/1999/xlink" width="320" height="320" viewBox="0 0 320 320">
    <defs>
        <linearGradient id="a" x1="50%" x2="50%" y1=".547%" y2="94.247%">
            <stop offset="0%" stop-color="#F6F7F9"/>
            <stop offset="100%" stop-color="#F6F7F9"/>
        </linearGradient>
        <filter id="b" width="172.6%" height="184.9%" x="-36.3%" y="-42.5%" filterUnits="objectBoundingBox">
            <feGaussianBlur in="SourceGraphic" stdDeviation="30"/>
        </filter>
        <linearGradient id="c" x1="50%" x2="50%" y1="0%" y2="100%">
            <stop offset="0%" stop-color="#D9DADB"/>
            <stop offset="100%" stop-color="#EAECEE" stop-opacity="0"/>
        </linearGradient>
        <path id="d" d="M55.523 0C43.04 0 31.546 3.981 21.335 11.799 10.996 19.714 3.977 30.952.305 45.159c-1.313 5.085 1.73 10.274 6.798 11.592 5.067 1.318 10.24-1.735 11.554-6.818 2.648-10.245 7.365-17.799 14.18-23.016 6.94-5.314 14.404-7.899 22.686-7.899 5.235 0 9.479-4.257 9.479-9.509 0-5.252-4.244-9.509-9.48-9.509z"/>
        <path id="f" d="M0 48.887c0 5.213 4.23 9.44 9.447 9.44 2.674 0 7.885-1.215 13.053-3.01 6.826-2.37 13.275-5.592 18.673-9.727 8.328-6.38 15.372-17.258 21.57-32.618 1.95-4.835-.39-10.335-5.229-12.285-4.838-1.95-10.343.39-12.294 5.225-5.048 12.51-10.375 20.736-15.542 24.695-3.617 2.771-8.317 5.12-13.379 6.877a55.894 55.894 0 0 1-5.509 1.615 26.551 26.551 0 0 1-1.789.358C3.991 39.69 0 43.823 0 48.887z"/>
        <path id="h" d="M6.706 15.652c.392.607 1.878 2.813 2.106 3.158a56.5 56.5 0 0 1 2.152 3.492c3.173 5.636 4.753 11.33 4.325 18.022-.41 6.41-2.44 10.776-6.623 15.837-.252.305-5.29 6.02-6.681 7.904C-1.35 68.58-.385 74.94 4.14 78.268c4.526 3.328 10.898 2.364 14.232-2.152.769-1.041 5.252-6.126 5.998-7.029 2.988-3.616 5.29-7.064 7.151-11.065 2.304-4.955 3.696-10.37 4.082-16.404.702-10.978-1.923-20.44-6.892-29.267a76.167 76.167 0 0 0-2.905-4.723c-.332-.503-1.723-2.567-1.977-2.962-3.04-4.719-9.337-6.085-14.066-3.051-4.728 3.033-6.097 9.318-3.058 14.037z"/>
        <linearGradient id="j" x1="100%" x2="0%" y1="50%" y2="50%">
            <stop offset="0%" stop-color="#DCDDDF"/>
            <stop offset="100%" stop-color="#DCDDDF"/>
        </linearGradient>
        <path id="k" d="M13.03 22.526c9.707-2.814 15.897-2.967 22.017.455 3.968 2.218 6.454 5.276 8.414 9.865.888 2.078 1.195 3.012 2.785 8.205 1.637 5.346 7.323 8.36 12.701 6.733 5.378-1.627 8.41-7.279 6.774-12.624-1.838-6.002-2.233-7.204-3.522-10.22-3.6-8.432-8.928-14.985-17.172-19.594C38.344 1.609 31.256.03 23.837.214 18.415.349 13.495 1.315 7.331 3.102 1.935 4.667-1.164 10.283.41 15.647c1.574 5.364 7.224 8.444 12.62 6.88z"/>
        <linearGradient id="m" x1="50%" x2="50%" y1="0%" y2="100%">
            <stop offset="0%" stop-color="#FFF"/>
            <stop offset="100%" stop-color="#FBFBFB"/>
        </linearGradient>
        <ellipse id="n" cx="23.537" cy="23.531" rx="23.537" ry="23.531"/>
        <linearGradient id="o" x1="50%" x2="50%" y1="0%" y2="100%">
            <stop offset="0%" stop-color="#FFF"/>
            <stop offset="100%" stop-color="#FBFBFB"/>
        </linearGradient>
        <path id="q" d="M7.728.891C7.728.4 8.127 0 8.619 0h7.728a.891.891 0 1 1 0 1.783h3.619a5 5 0 0 1 5 5v20.902a5 5 0 0 1-5 5h.84a1.189 1.189 0 1 1 0 2.377h-5.648a.891.891 0 1 1 0 1.783H9.213a.891.891 0 1 1 0-1.783H4.161a1.189 1.189 0 0 1 0-2.377H5a5 5 0 0 1-5-5V6.783a5 5 0 0 1 5-5h3.619A.891.891 0 0 1 7.728.89z"/>
    </defs>
    <g fill="none" fill-rule="evenodd">
        <path fill="#FFF" d="M-800-283h1920v1896H-800z"/>
        <path fill="url(#a)" d="M836 1707h248v212H836z" filter="url(#b)" transform="translate(-800 -1670)"/>
        <g transform="scale(1 -1) rotate(26 558.038 98.23)">
            <path fill="url(#c)" fill-rule="nonzero" d="M49.083 80.127C15.977 99.909 3.744 129.735 12.715 168.62a4.161 4.161 0 0 0 8.11-1.87c-8.17-35.41 2.562-61.576 32.527-79.482a4.16 4.16 0 1 0-4.27-7.141z"/>
            <path fill="#D9DADB" d="M66.672 23.753c11.688 0 21.162 9.475 21.162 21.162v31.447c0 9.48-7.684 17.163-17.163 17.163-1.347 0-2.69-.158-4-.472l-2.754-.66a24 24 0 0 1-18.408-23.34V44.915c0-11.687 9.475-21.162 21.163-21.162z"/>
            <g transform="translate(.55 32.652)">
                <mask id="e" fill="#fff">
                    <use xlink:href="#d"/>
                </mask>
                <use fill="#EAECEE" xlink:href="#d"/>
                <path fill="#DCDDDF" d="M25.622 40.047l.725-.51.523-.83.148-.788-.055-.545-.104-.347-.076-.176-.047-.092-.042-.075-.038-.064c-.23-.314-.23-.314-.315-.4-.11-.107-.11-.107-.154-.144a10.57 10.57 0 0 0-.537-.412 805.389 805.389 0 0 0-2.824-2.088c-2.766-2.038-7.31-5.378-13.63-10.02L6.374 27.38c9.494 7.03 15.023 11.106 16.618 12.248.107.077.185.133.24.17.044.032.044.032.134.09a2.462 2.462 0 0 0 .355.185c.113.047.113.047.336.112.16.036.16.036.267.052l.47.015.828-.206z" mask="url(#e)"/>
                <path fill="#DCDDDF" d="M9.204 23.56L6.38 27.388c6.318 4.64 10.86 7.98 13.623 10.016a803.653 803.653 0 0 1 3.078 2.278c.013.01.048.037.004-.001-.04-.033-.04-.033-.147-.138-.085-.085-.085-.085-.296-.37l-.018-.029-.038-.063-.043-.076-.046-.091-.076-.177-.104-.346-.055-.545.148-.788.523-.83.724-.51c.802-.207.802-.207 1.02-.212.386.037.386.037.47.055.298.083.298.083.41.13.155.07.155.07.222.106.088.05.088.05.123.072l.046.03a20.449 20.449 0 0 1-.187-.133c-1.564-1.12-7.094-5.197-16.558-12.204z" mask="url(#e)"/>
            </g>
            <path fill="#D9DADB" d="M76.698 32.487c12.15 0 22 9.85 22 22V80.37c0 12.15-9.85 22-22 22s-22-9.85-22-22V54.487c0-12.15 9.85-22 22-22z"/>
            <g transform="translate(90.648 9.234)">
                <mask id="g" fill="#fff">
                    <use xlink:href="#f"/>
                </mask>
                <use fill="#EAECEE" fill-rule="nonzero" xlink:href="#f"/>
                <path fill="#DCDDDF" d="M36.36 22.133c.123.091 5.765 4.346 8.164 6.15l.064.048c4.196 3.156 6.995 5.245 8.012 5.971l2.763-3.87c-.969-.69-3.768-2.78-7.916-5.9l-.064-.048c-2.394-1.8-8.04-6.059-8.17-6.155l-2.852 3.804z" mask="url(#g)"/>
            </g>
            <path fill="#FBFBFB" d="M99.97 40.175l6.65 6.782c-3.499 1.41-5.965 4.803-5.965 8.764 0 1.143.206 2.24.583 3.254l-1.298 1.2a5.519 5.519 0 0 1-9.216-4.792l1.092-8.082c.54-3.996 3.892-6.999 7.898-7.122l.257-.004z"/>
            <g transform="translate(51.103 69.316)">
                <mask id="i" fill="#fff">
                    <use xlink:href="#h"/>
                </mask>
                <use fill="#EAECEE" fill-rule="nonzero" xlink:href="#h"/>
                <path fill="#DCDDDF" fill-rule="nonzero" d="M14.929 40.301h21.035v-4.754H14.93z" mask="url(#i)"/>
                <ellipse cx="3.733" cy="64.334" fill="url(#j)" mask="url(#i)" rx="4.071" ry="4.063"/>
            </g>
            <g transform="translate(82.005 73.47)">
                <mask id="l" fill="#fff">
                    <use xlink:href="#k"/>
                </mask>
                <use fill="#EAECEE" fill-rule="nonzero" xlink:href="#k"/>
                <path fill="#DCDDDF" fill-rule="nonzero" d="M21.714 0v20.57h4.755V0z" mask="url(#l)"/>
                <ellipse cx="46.484" cy="39.455" fill="#DCDDDF" mask="url(#l)" rx="4.071" ry="4.047"/>
            </g>
            <path fill="url(#m)" d="M54.83 37.088c0-1.726-.313-3.38-.884-4.906 3.856-5.5 10.242-9.094 17.468-9.094 9.41 0 17.396 6.095 20.226 14.553a8.001 8.001 0 0 1 7.19 7.96v36.165a8 8 0 0 1-8 8h-28a8 8 0 0 1-8-8V37.088z"/>
            <g transform="translate(59.085 .1)">
                <mask id="p" fill="#fff">
                    <use xlink:href="#n"/>
                </mask>
                <use fill="#D9DADB" xlink:href="#n"/>
                <path fill="url(#o)" d="M23.537 0a23.986 23.986 0 0 1 3.632.278 23.468 23.468 0 0 1 4.85 1.296l.16.063a23.392 23.392 0 0 1 .52.212l.238.102a23.366 23.366 0 0 1 4.232 2.394 23.618 23.618 0 0 1 3.012 2.547l.075.076a23.68 23.68 0 0 1 2.113 2.444 23.423 23.423 0 0 1 4.706 14.12 23.452 23.452 0 0 1-6.729 16.472l-.048.049-.194.194.242-.243a23.683 23.683 0 0 1-6.258 4.568 23.46 23.46 0 0 1-5.249 1.891 23.409 23.409 0 0 1-4.912.597l-.39.003a23.987 23.987 0 0 1-3.937-.328 23.479 23.479 0 0 1-1.832-.384l-.108-.028a23.366 23.366 0 0 1-6.961-3.066l.099.278C4.114 39.384-.336 31.977-.336 23.53-.336 10.535 10.202 0 23.2 0H23.537zM8.742 31.936c0 2.78.338 5.483.975 8.068h22.085c5.568-3.817 9.22-10.222 9.22-17.481 0-4.95-1.699-9.504-4.546-13.11h-19.07a33.487 33.487 0 0 0-8.664 22.523z" mask="url(#p)"/>
            </g>
            <path fill="#D9DADB" d="M75.327 44.114h16.705a8 8 0 0 1 8 8v13.577a8 8 0 0 1-8 8H75.327a8 8 0 0 1-8-8V52.114a8 8 0 0 1 8-8z"/>
            <path fill="#FFF" d="M76.699 46.834h18.344a6 6 0 0 1 6 6V67.39a8 8 0 0 1-8 8H76.7a6 6 0 0 1-6-6V52.834a6 6 0 0 1 6-6z"/>
            <rect width="4.046" height="20.398" x="94.637" y="50.574" fill="#F6F6F7" rx="2.023"/>
            <ellipse cx="78.791" cy="62.812" fill="#F6F6F7" rx="2.36" ry="2.38"/>
            <ellipse cx="85.871" cy="62.812" fill="#F6F6F7" rx="2.36" ry="2.38"/>
            <rect width="6.743" height="7.479" x="74.408" y="50.574" fill="#F6F6F7" rx="3.372"/>
            <rect width="8.766" height="3.06" x="83.848" y="50.574" fill="#F6F6F7" rx="1.53"/>
            <ellipse cx="78.014" cy="30.884" fill="#FFF" rx="3.962" ry="4.04"/>
            <ellipse cx="84.287" cy="25.497" fill="#FFF" rx="1.981" ry="2.02"/>
        </g>
        <g transform="rotate(30 -25.927 505.965)">
            <mask id="r" fill="#fff">
                <use xlink:href="#q"/>
            </mask>
            <use fill="#ECEDF0" xlink:href="#q"/>
            <path fill="#E1E2E5" fill-rule="nonzero" d="M17.19 1.265l2.377.06-.216 8.506 6.184-.308.118 2.375-6.363.315-.275 10.831 6.013-.177.07 2.376-6.143.181-.169 6.654-2.377-.06.166-6.523-8.4.25-.003 6.94H5.795l.003-6.87-7.018.208-.07-2.376 7.089-.21.005-10.552-6.172.308-.118-2.374 6.29-.314.006-8.818 2.378.002-.005 8.698 8.786-.438.221-8.684zm-.281 11.067l-8.727.434-.005 10.6 8.458-.25.274-10.784z" mask="url(#r)"/>
        </g>
        <path fill="#FFF" d="M72.187 213.632c.656 0 1.188.53 1.188 1.184 0 .654-.532 1.184-1.188 1.184-.655 0-1.187-.53-1.187-1.184 0-.654.532-1.184 1.187-1.184zm64.115-7.698c.983 0 1.78.795 1.78 1.777 0 .98-.797 1.776-1.78 1.776a1.779 1.779 0 0 1-1.781-1.776c0-.982.797-1.777 1.78-1.777zm120.51-6.513c.656 0 1.188.53 1.188 1.184 0 .654-.532 1.184-1.187 1.184-.656 0-1.188-.53-1.188-1.184 0-.654.532-1.184 1.188-1.184zm-54.022-24.276c.984 0 1.781.795 1.781 1.776s-.797 1.776-1.78 1.776a1.779 1.779 0 0 1-1.781-1.776c0-.981.797-1.776 1.78-1.776zm33.839-5.921c.983 0 1.78.795 1.78 1.776s-.797 1.776-1.78 1.776a1.779 1.779 0 0 1-1.781-1.776c0-.981.797-1.776 1.78-1.776zM228.317 81a2.372 2.372 0 0 1 2.375 2.368 2.372 2.372 0 0 1-2.375 2.369 2.372 2.372 0 0 1-2.374-2.369A2.372 2.372 0 0 1 228.317 81z"/>
    </g>
</svg>
