<svg xmlns="http://www.w3.org/2000/svg" xmlns:xlink="http://www.w3.org/1999/xlink" width="32" height="32" viewBox="0 0 32 32">
    <defs>
        <rect id="a" width="32" height="32" rx="8"/>
    </defs>
    <g fill="none" fill-rule="evenodd">
        <mask id="b" fill="#fff">
            <use xlink:href="#a"/>
        </mask>
        <use fill="#FB4D1F" xlink:href="#a"/>
        <g fill="#FFF" mask="url(#b)">
            <path d="M12.598 16.053l1.34.27c.092.018.158.099.158.193v2.65a.197.197 0 0 1-.236.193l-1.34-.27a.197.197 0 0 1-.158-.193v-2.65c0-.125.114-.218.236-.193m-1.088 4.844l.694.14v1.082c0 .552.452 1.018 1.005 1.007a.985.985 0 0 0 .966-.985v-.708l.251.051a1.319 1.319 0 0 0 1.11-.28c.337-.276.53-.694.53-1.146v-4.117c0-.695-.47-1.295-1.118-1.426l-.773-.155v-1.067c0-.552-.452-1.018-1.005-1.007a.985.985 0 0 0-.966.985v.692l-.173-.035a1.33 1.33 0 0 0-1.108.28 1.471 1.471 0 0 0-.532 1.146v4.116c0 .696.47 1.296 1.12 1.427"/>
            <path d="M19.147 12.364v13.062c0 .4-.22.645-.351.755a.973.973 0 0 1-.804.216l-9.756-1.71a.197.197 0 0 1-.163-.194V9.498c0-.122.11-.215.231-.194l9.702 1.7a1.377 1.377 0 0 1 1.141 1.36m2.427-6.841l-9.09-1.593a2.564 2.564 0 0 0-2.026.51L6.86 7.247A1.971 1.971 0 0 0 6.103 8.8v16.354c0 .672.48 1.243 1.141 1.36l10.408 1.824a2.948 2.948 0 0 0 2.411-.648 2.95 2.95 0 0 0 1.055-2.265V12.364a3.345 3.345 0 0 0-2.772-3.301l-8.216-1.44a.197.197 0 0 1-.088-.35l1.634-1.284a.592.592 0 0 1 .467-.118l9.09 1.593a2.952 2.952 0 0 1 2.446 2.913v11.716c0 .552.452 1.018 1.005 1.007a.985.985 0 0 0 .966-.985V10.377a4.92 4.92 0 0 0-4.076-4.854"/>
        </g>
    </g>
</svg>
