<svg xmlns="http://www.w3.org/2000/svg" width="64" height="20" viewBox="0 0 64 20">
    <path fill="#23272D" fill-rule="evenodd" d="M39.071 0a2.474 2.474 0 0 1 2.474 2.475V8.66a2.474 2.474 0 0 1-2.474 2.474h-2.886a.206.206 0 0 0-.206.206v.825c0 .114.092.206.206.206h4.392c.68 0 1.265.533 1.278 1.214a1.237 1.237 0 0 1-1.237 1.26H39.57l2.065 3.213c.366.568.24 1.343-.317 1.725a1.236 1.236 0 0 1-1.74-.351l-2.784-4.33a1.202 1.202 0 0 1-.078-.14.204.204 0 0 0-.185-.117h-.346a.206.206 0 0 0-.206.206v3.712c0 .69-.567 1.25-1.26 1.237-.682-.013-1.215-.597-1.215-1.278v-3.67a.206.206 0 0 0-.206-.207h-.302a.208.208 0 0 0-.194.136 1.22 1.22 0 0 1-.12.235l-2.783 4.227a1.236 1.236 0 1 1-2.067-1.36l2.132-3.238h-1.099c-.69 0-1.25-.566-1.237-1.26.013-.68.597-1.214 1.278-1.214h4.392a.206.206 0 0 0 .206-.206v-.825a.206.206 0 0 0-.206-.206h-2.886a2.474 2.474 0 0 1-2.474-2.474V2.475A2.474 2.474 0 0 1 30.412 0zM2.837 15.414a1.237 1.237 0 1 1 1.749 1.75l-2.474 2.474a1.233 1.233 0 0 1-1.75 0 1.237 1.237 0 0 1 0-1.75zM18.763 0a1.237 1.237 0 0 1 0 2.475H10.72c-.682 0-1.237.554-1.237 1.237v13.401c0 .228.185.413.413.413h8.866a1.237 1.237 0 0 1 0 2.474H9.897a2.89 2.89 0 0 1-2.887-2.887V3.712A3.715 3.715 0 0 1 10.721 0zm39.38 6.186a2.474 2.474 0 0 1 2.474 2.474v1.237a2.474 2.474 0 0 1-2.474 2.474h-3.402a.206.206 0 0 0-.206.206v1.031c0 .114.092.206.206.206h5.258c.69 0 1.25.567 1.236 1.26-.012.682-.596 1.215-1.277 1.215H54.74a.206.206 0 0 0-.206.206v.824c0 .114.092.207.206.207h6.66c.68 0 1.265.533 1.278 1.214A1.237 1.237 0 0 1 61.442 20H45.36c-.691 0-1.25-.566-1.237-1.26.012-.681.597-1.214 1.278-1.214h6.453a.206.206 0 0 0 .207-.207v-.824a.206.206 0 0 0-.207-.206h-5.257c-.691 0-1.25-.567-1.237-1.26.012-.682.597-1.215 1.278-1.215h5.216a.206.206 0 0 0 .207-.206v-1.03a.206.206 0 0 0-.207-.207h-3.402a2.474 2.474 0 0 1-2.474-2.474V8.66a2.474 2.474 0 0 1 2.474-2.474zm-33.607-.619c.683 0 1.237.554 1.237 1.237V17.32a1.238 1.238 0 0 1 .203 2.458l-1.237.206a1.241 1.241 0 0 1-1.003-.276 1.237 1.237 0 0 1-.438-.944V8.04h-.412a1.237 1.237 0 0 1 0-2.474zM1.213 7.423l.127.004 2.474.206a1.237 1.237 0 1 1-.205 2.466l-2.475-.206a1.237 1.237 0 0 1 .206-2.466zM57.937 8.66h-9.278a.206.206 0 0 0-.207.206v.825c0 .114.093.206.207.206h9.279a.206.206 0 0 0 .206-.207v-.824a.206.206 0 0 0-.207-.206zM33.298 6.804h-2.68a.206.206 0 0 0-.206.206v1.444c0 .114.092.206.206.206h2.68a.206.206 0 0 0 .206-.206V7.01a.206.206 0 0 0-.206-.206zm5.568 0h-2.681a.206.206 0 0 0-.206.206v1.444c0 .114.092.206.206.206h2.682a.206.206 0 0 0 .206-.206V7.01a.206.206 0 0 0-.207-.206zM58.206.846a1.237 1.237 0 0 1 1.588-.775c.641.228.962.95.747 1.597l-.27.808a2.89 2.89 0 0 1 2.82 2.885v.619c0 .69-.566 1.25-1.26 1.236-.681-.012-1.214-.596-1.214-1.277V5.36a.412.412 0 0 0-.412-.412H46.39a.412.412 0 0 0-.413.412v.619c0 .69-.566 1.25-1.26 1.236-.681-.012-1.214-.596-1.214-1.277V5.36a2.89 2.89 0 0 1 2.82-2.885l-.282-.847a1.237 1.237 0 0 1 .804-1.572c.65-.204 1.34.182 1.556.828l.483 1.449a.206.206 0 0 0 .195.14h2.774a.206.206 0 0 0 .207-.206v-1.03c0-.692.566-1.25 1.26-1.237.681.012 1.214.596 1.214 1.278v.99c0 .113.092.206.206.206h2.774a.206.206 0 0 0 .196-.141zM33.298 2.475h-2.68a.206.206 0 0 0-.206.206v1.443c0 .114.092.206.206.206h2.68a.206.206 0 0 0 .206-.206V2.681a.206.206 0 0 0-.206-.206zm5.567 0h-2.68a.206.206 0 0 0-.206.206v1.443c0 .114.092.206.206.206h2.68a.206.206 0 0 0 .207-.206V2.681a.206.206 0 0 0-.207-.206zM1.213.413l.127.004 2.474.206a1.237 1.237 0 0 1-.205 2.466l-2.475-.206A1.237 1.237 0 0 1 1.34.417zM22.896.207l.127.007 1.855.206a1.237 1.237 0 1 1-.273 2.46l-1.855-.207a1.237 1.237 0 0 1 .273-2.459z"/>
</svg>
