<svg xmlns="http://www.w3.org/2000/svg" width="40" height="40" viewBox="0 0 40 40">
    <g fill="#C3C5C8" fill-rule="nonzero">
        <path d="M37.179 1.062a.5.5 0 1 1-.485.875A3.482 3.482 0 0 0 35 1.5a.5.5 0 1 1 0-1c.772 0 1.518.195 2.179.562zM39.5 6.877a.5.5 0 0 1-1 0l-.002-1.993a.5.5 0 1 1 1-.033l.002.14v1.886zm0 6a.5.5 0 1 1-1 0v-2a.5.5 0 1 1 1 0v2zm0 6a.5.5 0 1 1-1 0v-2a.5.5 0 1 1 1 0v2zm0 6a.5.5 0 1 1-1 0v-2a.5.5 0 1 1 1 0v2zm0 6a.5.5 0 1 1-1 0v-2a.5.5 0 1 1 1 0v2zm-.495 6.176a.5.5 0 0 1-.89-.457c.252-.49.385-1.032.385-1.596v-.123a.5.5 0 1 1 1 0V35c0 .723-.171 1.423-.495 2.053zm-5.76 2.447a.5.5 0 1 1 0-1h1.772c.072 0 .144-.003.215-.008a.5.5 0 0 1 .066.998c-.092.006-.184.01-.279.01h-1.773zm-6 0a.5.5 0 0 1 0-1h2a.5.5 0 1 1 0 1h-2zm-6 0a.5.5 0 0 1 0-1h2a.5.5 0 1 1 0 1h-2zm-6 0a.5.5 0 0 1 0-1h2a.5.5 0 1 1 0 1h-2zm-6 0a.5.5 0 1 1 0-1h2a.5.5 0 1 1 0 1h-2zm-6.171-.432a.5.5 0 1 1 .428-.904c.464.22.972.336 1.498.336h.246a.5.5 0 1 1 0 1H5a4.484 4.484 0 0 1-1.926-.432zM.5 33.368a.5.5 0 1 1 1 0v1.657c0 .108.006.216.017.323a.5.5 0 1 1-.995.098 4.56 4.56 0 0 1-.022-.418v-1.66zm0-6a.5.5 0 1 1 1 0v2a.5.5 0 0 1-1 0v-2zm0-6a.5.5 0 1 1 1 0v2a.5.5 0 0 1-1 0v-2zm0-6a.5.5 0 1 1 1 0v2a.5.5 0 0 1-1 0v-2zm0-6a.5.5 0 0 1 1 0v2a.5.5 0 0 1-1 0v-2zm.373-6.165a.5.5 0 1 1 .917.4c-.19.436-.29.91-.29 1.397v.369a.5.5 0 1 1-1 0V5c0-.626.128-1.235.373-1.797zM6.508.5a.5.5 0 1 1 0 1h-1.54a3.534 3.534 0 0 0-.43.03.5.5 0 0 1-.13-.991c.181-.024.365-.037.555-.039h1.545zm6 0a.5.5 0 1 1 0 1h-2a.5.5 0 0 1 0-1h2zm6 0a.5.5 0 1 1 0 1h-2a.5.5 0 0 1 0-1h2zm6 0a.5.5 0 1 1 0 1h-2a.5.5 0 0 1 0-1h2zm6 0a.5.5 0 1 1 0 1h-2a.5.5 0 0 1 0-1h2zM35 .5a.5.5 0 1 1 0 1h-.492a.5.5 0 0 1 0-1H35zM21 14a1 1 0 0 1 1 1v4h4a1 1 0 0 1 0 2h-4v4a1 1 0 0 1-2 0v-4h-4a1 1 0 0 1 0-2h4v-4a1 1 0 0 1 1-1z"/>
    </g>
</svg>
