<svg xmlns="http://www.w3.org/2000/svg" width="172" height="172" viewBox="0 0 172 172">
    <g fill="none" fill-rule="evenodd">
        <circle cx="86" cy="86" r="86" fill="#F6F7F9"/>
        <path fill="#F6F7F9" stroke="#232A34" stroke-width="3" d="M49 120.022c12.545-9.057 20.306-13.585 23.283-13.585h27.508c2.475 0 4.27 5.631 1.18 6.792 6.375-3.223 11.294-6.015 14.214-8.2 2.92-2.183 8.755-2.213 7.57 2.467 5.144-2.466 7.687-5.248 10.507-4.31 2.82.94 4.398 4.417 0 8.325C128.863 115.418 97.447 136 75.376 136H49v-15.978zM38 118L49 118 49 137 38 137"/>
        <path stroke="#232A34" stroke-width="3" d="M101 113.053c-.62.266-2.63.894-4.86.894H81M122 108s-7.246 5.525-25 6"/>
        <g transform="translate(97 41)">
            <circle cx="17" cy="35" r="17" fill="#FB4D1F" stroke="#232A34" stroke-width="3"/>
            <text fill="#1A1A1A" font-family="PingFangSC-Regular, PingFang SC" font-size="24">
                <tspan x="10" y="44">$</tspan>
            </text>
            <path stroke="#232A34" stroke-width="3" d="M7.5 20.5L7.5 11M18.5 2.699L18.5.3M18.5 18L18.5 6M7.5 7.699L7.5 5.3M13.5 9.699L13.5 7.3M13.5 19L13.5 12M25.5 20.5L25.5 10M25.5 7.699L25.5 5.3"/>
        </g>
        <g transform="translate(51 23)">
            <circle cx="25" cy="51" r="25" fill="#FB4D1F" stroke="#232A34" stroke-width="3"/>
            <text fill="#1A1A1A" font-family="PingFangSC-Regular, PingFang SC" font-size="40">
                <tspan x="13" y="66">$</tspan>
            </text>
            <path stroke="#232A34" stroke-width="3" d="M9.5 31.5L9.5 15.501M41.5 32.5L41.5 15.501M25.5 4.499L25.5.5M41.5 11.499L41.5 7.5M25.5 26L25.5 8.501M9.5 11.499L9.5 7.5M18 14.998L18 10.999M18 27.5L18 18M35 28.5L35 19"/>
        </g>
    </g>
</svg>
