<svg xmlns="http://www.w3.org/2000/svg" width="172" height="172" viewBox="0 0 172 172">
    <g fill="none" fill-rule="evenodd">
        <circle cx="86" cy="86" r="86" fill="#F6F7F9"/>
        <g stroke="#232A34">
            <path fill="#FB4D1F" fill-rule="nonzero" stroke-width="3" d="M39.881 80.093c-3.393-.93-6.624-2.372-9.584-4.275l-8.593 7.356-10.542-10.667 7.517-8.991c-1.755-3.09-3.032-6.427-3.786-9.9l-11.22-.95v-15.06l11.604-.979c.914-3.433 2.344-6.707 4.24-9.71l-7.265-8.69L22.801 7.558l8.886 7.614c3.045-1.767 6.344-3.056 9.78-3.82L42.39 0h14.93l.97 11.743c3.391.932 6.62 2.373 9.578 4.276l8.593-7.356L87 19.33l-7.516 8.99c1.754 3.09 3.03 6.428 3.786 9.9l11.22.943v15.069l-11.611.957c-.915 3.431-2.342 6.705-4.234 9.71l7.266 8.69L75.37 84.258l-8.893-7.594c-3.047 1.763-6.345 3.052-9.78 3.822l-16.816-.392z" transform="translate(36 41)"/>
            <path stroke-dasharray="2" d="M49.592 72.551c14.201 0 25.714-11.513 25.714-25.714 0-14.202-11.513-25.715-25.714-25.715-14.202 0-25.714 11.513-25.714 25.715 0 14.201 11.512 25.714 25.714 25.714z" transform="translate(36 41)"/>
            <g stroke-width="3" transform="translate(36 41) translate(0 29.388)">
                <path fill="#F6F7F9" d="M0 60.612c0-7.1 6.332-12.857 14.143-12.857h10.286c7.81 0 14.142 5.756 14.142 12.857M60.612 60.612c0-7.1 6.332-12.857 14.143-12.857h10.286c7.81 0 14.143 5.756 14.143 12.857"/>
                <path fill="#FFF" d="M43.163 30.306H56.019999999999996V56.019999999999996H43.163z"/>
                <path fill="#F6F7F9" d="M22.96 60.612c0-10.144 8.743-18.367 19.53-18.367l7.077 7.353 7.127-7.353c10.786 0 19.53 8.223 19.53 18.367"/>
                <ellipse cx="19.286" cy="33.98" fill="#F6F7F9" rx="11.02" ry="13.776"/>
                <ellipse cx="79.898" cy="33.98" fill="#F6F7F9" rx="11.02" ry="13.776"/>
                <path fill="#F6F7F9" d="M49.592 0c4.144 0 9.83 2.144 12.502 5.593 2.12 2.738 2.232 6.298 2.208 10.26 1.597.573 2.739 2.099 2.739 3.892 0 2.036-1.473 3.728-3.41 4.07-1.858 7.483-7.44 12.92-14.04 12.92-6.597 0-12.18-5.437-14.036-12.922-1.94-.34-3.412-2.032-3.412-4.068 0-1.805 1.157-3.34 2.77-3.903.065-3.85.418-7.583 2.322-10.249C39.926 1.826 45.233 0 49.592 0z"/>
                <path d="M34.898 15.182c3.985-2.774 7.031-4.162 9.14-4.162 2.11 0 3.96.547 5.554 1.639 4.708-2.69 9.456-1.85 14.243 2.523"/>
            </g>
        </g>
    </g>
</svg>
