<svg xmlns="http://www.w3.org/2000/svg" width="121" height="154" viewBox="0 0 121 154">
    <g fill="none" fill-rule="evenodd" transform="translate(.5 1)">
        <rect width="120" height="154" fill="#4F4845" rx="8"/>
        <path fill="#BF8F4B" fill-rule="nonzero" d="M111 5c2.21 0 4 1.803 4 4.028v135.944c0 2.225-1.79 4.028-4 4.028H9c-2.21 0-4-1.803-4-4.028V9.028C5 6.803 6.79 5 9 5h102zm0 1.007H9c-1.657 0-3 1.353-3 3.021v135.944c0 1.668 1.343 3.021 3 3.021h102c1.657 0 3-1.353 3-3.021V9.028c0-1.668-1.343-3.021-3-3.021z"/>
        <path fill="#D2A05A" d="M60 37c10.77 0 19.5 8.73 19.5 19.5v9C79.5 76.27 70.77 85 60 85s-19.5-8.73-19.5-19.5v-9C40.5 45.73 49.23 37 60 37zm0 8a4 4 0 1 0 0 8 4 4 0 0 0 0-8z"/>
    </g>
</svg>
