<?xml version="1.0" encoding="UTF-8"?>
<svg width="24px" height="24px" viewBox="0 0 24 24" version="1.1" xmlns="http://www.w3.org/2000/svg" xmlns:xlink="http://www.w3.org/1999/xlink">
    <!-- Generator: Sketch 63 (92445) - https://sketch.com -->
    <title>huiche</title>
    <desc>Created with Sketch.</desc>
    <g id="组件" stroke="none" stroke-width="1" fill="none" fill-rule="evenodd">
        <g id="icon/navibar/navibar_24_Enter_normal">
            <rect id="矩形" fill="#FFFFFF" x="0" y="0" width="24" height="24" rx="12"></rect>
            <path d="M8.29289322,8.29289322 C8.68341751,7.90236893 9.31658249,7.90236893 9.70710678,8.29289322 L9.70710678,8.29289322 L12,10.585 L14.2928932,8.29289322 C14.6533772,7.93240926 15.2206082,7.90467972 15.6128994,8.20970461 L15.7071068,8.29289322 C16.0976311,8.68341751 16.0976311,9.31658249 15.7071068,9.70710678 L15.7071068,9.70710678 L13.415,12 L15.7071068,14.2928932 C16.0675907,14.6533772 16.0953203,15.2206082 15.7902954,15.6128994 L15.7071068,15.7071068 C15.3165825,16.0976311 14.6834175,16.0976311 14.2928932,15.7071068 L14.2928932,15.7071068 L12,13.415 L9.70710678,15.7071068 C9.34662282,16.0675907 8.77939176,16.0953203 8.38710056,15.7902954 L8.29289322,15.7071068 C7.90236893,15.3165825 7.90236893,14.6834175 8.29289322,14.2928932 L8.29289322,14.2928932 L10.585,12 L8.29289322,9.70710678 C7.93240926,9.34662282 7.90467972,8.77939176 8.20970461,8.38710056 Z" id="形状结合" fill="#858C96" fill-rule="nonzero"></path>
        </g>
    </g>
</svg>