<svg xmlns="http://www.w3.org/2000/svg" width="24" height="24" viewBox="0 0 24 24">
    <g fill="none" fill-rule="evenodd">
        <path d="M0 0h24v24H0z"/>
        <path stroke="#C3C5C8" stroke-linecap="round" stroke-linejoin="round" stroke-width="2" d="M9.815 18.677a561.246 561.246 0 0 1-4.367-4.688c-.772-.844-1.226-1.751-1.389-2.771-.29-1.826.508-3.677 1.988-4.606.636-.399 1.35-.61 2.068-.61 1.046 0 2.053.442 2.837 1.243.345.353.688.46.978.46.373 0 .657-.177.743-.237.182-.13.36-.263.534-.396.315-.237.612-.461.893-.615A3.637 3.637 0 0 1 15.865 6c2.05 0 3.807 1.642 4.087 3.818.193 1.512-.194 2.787-1.185 3.896a293.583 293.583 0 0 1-4.577 4.962 3 3 0 0 1-4.375 0z"/>
    </g>
</svg>
