<svg xmlns="http://www.w3.org/2000/svg" width="24" height="24" viewBox="0 0 24 24">
    <path fill="#F64742" fill-rule="evenodd" stroke="#F64742" stroke-linecap="round" stroke-linejoin="round" stroke-width="2" d="M9.803 20.633A764.192 764.192 0 0 1 3.81 14.12c-.966-1.07-1.534-2.219-1.737-3.511-.363-2.313.635-4.657 2.485-5.833a4.819 4.819 0 0 1 2.585-.773c1.307 0 2.566.56 3.546 1.573.432.448.86.584 1.223.584.466 0 .821-.225.928-.301.228-.165.45-.333.668-.5.393-.302.765-.585 1.116-.78A4.5 4.5 0 0 1 16.831 4c2.563 0 4.759 2.08 5.109 4.836.242 1.915-.243 3.53-1.481 4.935-1.39 1.578-3.476 3.865-6.257 6.863a3 3 0 0 1-4.4 0z"/>
</svg>
