<svg xmlns="http://www.w3.org/2000/svg" width="40" height="40" viewBox="0 0 40 40">
    <g fill="none" fill-rule="evenodd">
        <rect width="40" height="40" fill="#FB4D1F" rx="20"/>
        <path fill="#FFF" d="M16.307 19.896l1.714.331a.244.244 0 0 1 .202.237v3.246c0 .152-.146.267-.302.237l-1.713-.331a.244.244 0 0 1-.203-.237v-3.246c0-.152.146-.267.302-.237m-1.391 5.934l.888.171v1.326c0 .677.578 1.247 1.284 1.234.685-.013 1.236-.548 1.236-1.207v-.867l.322.062a1.759 1.759 0 0 0 1.418-.342c.432-.339.68-.85.68-1.404V19.76c0-.852-.603-1.587-1.432-1.747l-.988-.19v-1.307c0-.676-.578-1.247-1.285-1.234-.684.013-1.235.548-1.235 1.207v.847l-.221-.042a1.757 1.757 0 0 0-1.418.342c-.432.339-.68.85-.68 1.404v5.043c0 .852.602 1.587 1.43 1.747"/>
        <path fill="#FFF" d="M24.683 15.378v16c0 .49-.281.79-.45.924-.167.136-.524.35-1.027.265l-12.477-2.094a.245.245 0 0 1-.209-.238V11.868c0-.15.141-.264.296-.238l12.408 2.083c.846.142 1.46.842 1.46 1.665m3.103-8.38L16.16 5.048a3.388 3.388 0 0 0-2.59.624l-4.6 3.44A2.38 2.38 0 0 0 8 11.014v20.032c0 .823.614 1.523 1.46 1.665l13.31 2.234a3.872 3.872 0 0 0 3.084-.794 3.554 3.554 0 0 0 1.35-2.773v-16c0-1.998-1.491-3.698-3.545-4.043L13.15 9.57c-.214-.036-.283-.299-.112-.428l2.09-1.574a.782.782 0 0 1 .598-.144l11.626 1.952c1.812.304 3.128 1.804 3.128 3.567v14.35c0 .678.578 1.248 1.284 1.235.685-.013 1.236-.548 1.236-1.207V12.944c0-2.938-2.192-5.438-5.213-5.945"/>
    </g>
</svg>
