<svg xmlns="http://www.w3.org/2000/svg" xmlns:xlink="http://www.w3.org/1999/xlink" width="90" height="24" viewBox="0 0 90 24">
    <defs>
        <path id="a" d="M.005.022h16.84v19.447H.005z"/>
    </defs>
    <g fill="none" fill-rule="evenodd">
        <path fill="#253B80" d="M61.074 10.525h-2.392a.692.692 0 0 0-.57.3l-3.31 4.862-1.394-4.656a.693.693 0 0 0-.665-.49H50.4a.42.42 0 0 0-.411.411c0 .048 0 .095.016.143l2.629 7.728-2.471 3.484c-.127.19-.095.444.095.57.063.048.158.08.237.08h2.408c.221 0 .443-.111.57-.301l7.95-11.466a.409.409 0 0 0-.11-.57.38.38 0 0 0-.238-.095zm-15.98 4.624a2.64 2.64 0 0 1-2.676 2.265c-.697 0-1.236-.222-1.6-.634-.364-.411-.49-1.013-.38-1.663a2.679 2.679 0 0 1 2.66-2.296c.682 0 1.22.222 1.584.65.38.49.523 1.092.412 1.678zm3.31-4.624h-2.375a.41.41 0 0 0-.412.348l-.111.665-.158-.237c-.507-.745-1.663-.998-2.804-.998-2.628 0-4.877 1.995-5.305 4.783-.222 1.393.095 2.724.887 3.658.728.855 1.758 1.204 2.993 1.204a4.534 4.534 0 0 0 3.294-1.362l-.11.665a.425.425 0 0 0 .348.475h2.201a.696.696 0 0 0 .681-.586L48.816 11a.434.434 0 0 0-.349-.475h-.063zm-14.269.063c-.27 1.774-1.631 1.774-2.946 1.774h-.744l.523-3.326a.41.41 0 0 1 .411-.348h.349c.902 0 1.742 0 2.185.506.238.317.317.76.222 1.394zm-.57-4.656h-4.973a.696.696 0 0 0-.68.586L25.9 19.251a.425.425 0 0 0 .348.475h2.44a.696.696 0 0 0 .68-.586l.539-3.437a.696.696 0 0 1 .68-.586h1.568c3.263 0 5.163-1.583 5.654-4.719.222-1.378.016-2.455-.633-3.199-.697-.824-1.948-1.267-3.611-1.267z"/>
        <path fill="#179BD7" d="M86.619 6.28l-2.043 12.97a.425.425 0 0 0 .348.476h2.106a.696.696 0 0 0 .681-.586l2.012-12.733a.425.425 0 0 0-.349-.475h-2.36a.421.421 0 0 0-.395.348zm-6.113 8.869a2.64 2.64 0 0 1-2.677 2.265c-.697 0-1.235-.222-1.6-.634-.364-.411-.475-1.013-.38-1.663a2.678 2.678 0 0 1 2.661-2.296c.68 0 1.22.222 1.584.65.38.49.522 1.092.412 1.678zm3.31-4.624H81.44a.41.41 0 0 0-.412.348l-.11.665-.16-.237c-.506-.745-1.662-.998-2.802-.998-2.63 0-4.878 1.995-5.306 4.783-.221 1.393.095 2.724.887 3.658.729.855 1.758 1.204 2.993 1.204a4.534 4.534 0 0 0 3.294-1.362l-.11.665a.425.425 0 0 0 .348.475h2.201a.696.696 0 0 0 .681-.586L84.227 11a.425.425 0 0 0-.348-.475h-.064zm-14.27.063c-.269 1.774-1.63 1.774-2.945 1.774h-.745l.523-3.326a.41.41 0 0 1 .412-.348h.348c.903 0 1.742 0 2.186.506.253.317.332.76.221 1.394zm-.57-4.656h-4.973a.697.697 0 0 0-.68.586L61.31 19.251a.425.425 0 0 0 .349.475h2.613a.478.478 0 0 0 .475-.412l.57-3.61a.696.696 0 0 1 .68-.587h1.569c3.278 0 5.163-1.583 5.653-4.719.222-1.378.016-2.455-.633-3.199-.697-.824-1.948-1.267-3.61-1.267z"/>
        <path fill="#253B80" d="M5.296 22.197l.38-2.408-.84-.015H.783L3.586 1.973c.015-.048.031-.111.079-.143a.555.555 0 0 1 .142-.063h6.81c2.265 0 3.817.475 4.64 1.394.365.396.618.87.745 1.393a4.881 4.881 0 0 1 0 1.916l-.016.048v.49l.38.207c.285.142.554.348.776.586.348.396.554.887.634 1.41a5.541 5.541 0 0 1-.095 2.042 7.12 7.12 0 0 1-.84 2.313 4.683 4.683 0 0 1-1.33 1.456 5.23 5.23 0 0 1-1.79.808 8.78 8.78 0 0 1-2.233.254h-.522a1.6 1.6 0 0 0-1.584 1.346l-.032.221-.665 4.245-.032.158c0 .032-.015.063-.047.095a.12.12 0 0 1-.063.032l-3.247.016z"/>
        <path fill="#179BD7" d="M16.746 6.597c-.016.127-.047.27-.063.396-.903 4.609-3.975 6.208-7.887 6.208H6.785a.985.985 0 0 0-.966.824l-1.03 6.493-.285 1.837a.506.506 0 0 0 .428.586h3.626a.85.85 0 0 0 .84-.713l.031-.174.666-4.228.047-.238a.865.865 0 0 1 .84-.729h.522c3.437 0 6.129-1.393 6.905-5.432.333-1.678.158-3.088-.713-4.086a3.147 3.147 0 0 0-.95-.744"/>
        <g>
            <path fill="#222D65" d="M15.812 6.233c-.143-.048-.285-.08-.428-.111a4.37 4.37 0 0 0-.443-.08 10.945 10.945 0 0 0-1.758-.126H7.83a.838.838 0 0 0-.84.713l-1.14 7.19-.031.206a.972.972 0 0 1 .966-.824H8.78c3.928 0 7-1.6 7.903-6.208.031-.142.047-.27.063-.396a4.304 4.304 0 0 0-.744-.3l-.19-.064z"/>
            <g transform="translate(0 1.032)">
                <mask id="b" fill="#fff">
                    <use xlink:href="#a"/>
                </mask>
                <path fill="#253B80" d="M6.99 5.596a.85.85 0 0 1 .84-.712h5.337c.586 0 1.172.031 1.758.126.158.032.3.048.443.08.143.031.285.063.428.11l.206.064c.253.079.507.19.744.317.27-1.71 0-2.867-.919-3.912C14.814.513 12.977.022 10.633.022H3.807a.968.968 0 0 0-.95.823l-2.85 17.96a.588.588 0 0 0 .49.664h4.308l1.061-6.699 1.125-7.174z" mask="url(#b)"/>
            </g>
        </g>
    </g>
</svg>
