<svg xmlns="http://www.w3.org/2000/svg" xmlns:xlink="http://www.w3.org/1999/xlink" width="32" height="32" viewBox="0 0 32 32">
    <defs>
        <path id="a" d="M16 0c8.837 0 16 7.163 16 16s-7.163 16-16 16S0 24.837 0 16 7.163 0 16 0zm0 8.4c-2.761.023-4.999 2.282-5.054 5.177 0 1.073-.495 1.936-1.13 3.078-.937 1.688-.647 3.893-.168 3.893.31 0 .896-.348 1.357-.962a4.452 4.452 0 0 0 1.216 1.883c-.79.231-1.315.64-1.292 1.084.032.639 1.194 1.105 2.596 1.041 1.087-.05 1.996-.405 2.334-.861.048.001.093.004.141.004.05 0 .096-.003.144-.004.338.456 1.245.811 2.333.861 1.4.064 2.562-.402 2.594-1.041.023-.443-.502-.853-1.292-1.085a4.44 4.44 0 0 0 1.216-1.882c.462.615 1.047.962 1.356.962.48 0 .77-2.205-.168-3.893-.635-1.142-1.129-2.005-1.129-3.078C21 10.682 18.761 8.423 16 8.4z"/>
    </defs>
    <use fill="#4A90E2" fill-rule="evenodd" xlink:href="#a"/>
</svg>
