<svg xmlns="http://www.w3.org/2000/svg" width="280" height="281" viewBox="0 0 280 281">
    <defs>
        <radialGradient id="a" cy="47.887%" r="53.611%" fx="50%" fy="47.887%" gradientTransform="rotate(89.635 .5 .479)">
            <stop offset="0%" stop-color="#1A1A1A" stop-opacity="0"/>
            <stop offset="24.005%" stop-color="#A08766" stop-opacity=".12"/>
            <stop offset="49.987%" stop-color="#FFD6A0" stop-opacity=".12"/>
            <stop offset="76.605%" stop-color="#A08766" stop-opacity=".12"/>
            <stop offset="100%" stop-color="#1A1A1A" stop-opacity="0"/>
        </radialGradient>
    </defs>
    <path fill="url(#a)" fill-rule="evenodd" d="M141.264 167.423l4.755 112.44c-1.997.084-4.003.137-6.02.137-1.965 0-3.916-.051-5.86-.131l4.603-112.446a30.3 30.3 0 0 0 2.522 0zm-7.166-.583c.748.16 1.514.29 2.276.385L122.3 278.89c-3.959-.5-7.862-1.172-11.71-1.995zm11.82-.005l23.646 110.025c-3.848.828-7.75 1.507-11.708 2.01l-14.198-111.65a26.677 26.677 0 0 0 2.26-.385zm-16.141-1.315c.699.28 1.42.534 2.141.754L99.09 273.918a139.028 139.028 0 0 1-11.211-3.954zm20.462-.01l42.02 104.395a138.57 138.57 0 0 1-11.198 3.967l-32.948-107.61a26.09 26.09 0 0 0 2.126-.752zm-24.556-2.06a27.23 27.23 0 0 0 2.02 1.131L77.048 265.067a139.9 139.9 0 0 1-10.374-5.8zm28.662-.017l59.092 95.763a139.873 139.873 0 0 1-10.36 5.808l-50.76-100.435c.688-.348 1.37-.73 2.028-1.136zm-32.473-2.803c.597.524 1.223 1.03 1.861 1.502l-66.905 90.476a140.76 140.76 0 0 1-9.245-7.47zm36.263-.01l74.373 84.435a140.39 140.39 0 0 1-9.235 7.476l-66.97-90.429a28.035 28.035 0 0 0 1.832-1.482zm-39.569-3.436c.5.617 1.032 1.22 1.584 1.796l-81.153 77.94a140.898 140.898 0 0 1-7.855-8.916zm42.878-.016l87.49 70.737a140.778 140.778 0 0 1-7.847 8.926l-81.217-77.874a28.44 28.44 0 0 0 1.574-1.79zM115.93 153.3c.378.674.791 1.343 1.23 1.989l-93.103 63.175a140.307 140.307 0 0 1-6.24-10.112zm48.149-.025l98.164 54.957a140.034 140.034 0 0 1-6.23 10.124l-93.157-63.097a27.44 27.44 0 0 0 1.223-1.984zm-50.04-4.139c.252.712.539 1.422.852 2.111L12.448 197.755a139.047 139.047 0 0 1-4.433-11.019zm51.926-.028l106.07 37.476a139.097 139.097 0 0 1-4.425 11.038l-102.492-46.406c.31-.687.596-1.396.847-2.108zm-53.068-4.36c.13.751.291 1.502.481 2.233L4.523 175.376a139.58 139.58 0 0 1-2.5-11.618zm54.204-.026L278 163.599a139.38 139.38 0 0 1-2.484 11.621l-108.89-28.27c.19-.73.35-1.48.477-2.228zm-54.603-4.743c0 .823.035 1.646.104 2.447L.518 151.97A141.918 141.918 0 0 1 0 140.096zm167.495-.345c0 .102.004.202.004.303 0 4-.177 7.958-.505 11.873l-112.096-9.419c.065-.778.1-1.579.101-2.382v-.1zM1.972 116.433l110.917 18.748a27.873 27.873 0 0 0-.291 2.327L.49 128.223c.33-3.98.826-7.912 1.482-11.79zm275.975-.472a140.203 140.203 0 0 1 1.517 11.786l-112.073 9.664a27.865 27.865 0 0 0-.299-2.317zM7.909 93.441l106.115 37.345a26.62 26.62 0 0 0-.66 2.17L4.44 104.806A138.84 138.84 0 0 1 7.91 93.44zm264.02-.451a139.316 139.316 0 0 1 3.503 11.356l-108.821 28.522a26.711 26.711 0 0 0-.666-2.162zM17.675 71.78l98.226 54.848c-.373.67-.72 1.361-1.034 2.055L12.32 82.398a139.765 139.765 0 0 1 5.353-10.617zm244.426-.397a139.601 139.601 0 0 1 5.381 10.592l-102.388 46.627a27.211 27.211 0 0 0-1.04-2.05zM30.962 52.094l87.57 70.638a28.164 28.164 0 0 0-1.407 1.906L23.893 61.65c2.22-3.29 4.585-6.474 7.069-9.557zm217.794-.347a140.428 140.428 0 0 1 7.093 9.534l-93.028 63.282a28.165 28.165 0 0 0-1.413-1.9zM47.37 34.925l74.466 84.351a28.379 28.379 0 0 0-1.728 1.662l-81.31-77.781c2.738-2.864 5.601-5.608 8.572-8.232zm184.925-.294a140.911 140.911 0 0 1 8.593 8.209l-81.062 78.033a28.676 28.676 0 0 0-1.73-1.652zM66.425 20.763l59.202 95.695c-.662.41-1.317.855-1.947 1.324L56.596 27.437a140.396 140.396 0 0 1 9.829-6.674zm146.764-.239a140.304 140.304 0 0 1 9.852 6.65l-66.797 90.554a28.034 28.034 0 0 0-1.95-1.317zM87.59 10.03l42.136 104.348c-.7.283-1.398.6-2.076.945L76.778 14.942a139.349 139.349 0 0 1 10.812-4.913zm104.382-.178a139.084 139.084 0 0 1 10.836 4.886L152.264 115.28a26.646 26.646 0 0 0-2.075-.935zm-81.693-6.803l23.768 109.999a26.4 26.4 0 0 0-2.189.572L98.783 6.048a138.946 138.946 0 0 1 11.495-3zm58.973-.101c3.897.828 7.734 1.819 11.504 2.964l-32.7 107.683c-.72-.22-1.46-.41-2.198-.567zM133.82.018l4.881 112.435c-.801.035-1.602.103-2.38.203L121.983 1.026c3.897-.5 7.846-.834 11.836-1.008zM145.699 0c3.992.16 7.941.48 11.839.967l-13.96 111.677a28.474 28.474 0 0 0-2.381-.195z" transform="translate(0 1)"/>
</svg>
