<svg xmlns="http://www.w3.org/2000/svg" width="24" height="24" viewBox="0 0 24 24">
    <path fill="#22AB39" fill-rule="evenodd" d="M8.718 14.379a.795.795 0 0 1-1.056-.323l-.053-.115-2.181-4.787a.4.4 0 0 1 .6-.489l2.574 1.833a1.193 1.193 0 0 0 1.065.122l12.11-5.39C19.607 2.672 16.032 1 11.986 1 5.366 1 0 5.472 0 10.989c0 3.01 1.614 5.719 4.141 7.55a.798.798 0 0 1 .294.905l-.54 2.016c-.026.093-.065.192-.065.291 0 .22.179.4.4.4a.454.454 0 0 0 .231-.074l2.624-1.515c.197-.114.406-.185.636-.185.123 0 .241.019.353.053 1.224.352 2.544.548 3.912.548 6.62 0 11.986-4.472 11.986-9.99 0-1.67-.495-3.244-1.365-4.628l-13.8 7.969-.089.05z"/>
</svg>
