<svg xmlns="http://www.w3.org/2000/svg" xmlns:xlink="http://www.w3.org/1999/xlink" width="32" height="32" viewBox="0 0 32 32">
    <defs>
        <path id="a" d="M16 0c8.837 0 16 7.163 16 16s-7.163 16-16 16S0 24.837 0 16 7.163 0 16 0zm3.736 13.506c-3.062 0-5.472 2.121-5.472 4.722 0 2.605 2.41 4.72 5.472 4.72.64 0 1.286-.162 1.93-.325l.694.384a.5.5 0 0 0 .722-.58l-.135-.453c1.29-.98 2.253-2.28 2.253-3.746 0-2.601-2.574-4.722-5.464-4.722zM13.233 8.4C9.696 8.4 6.8 10.838 6.8 13.933c0 1.787.963 3.254 2.574 4.392l-.266.808a.5.5 0 0 0 .701.602l1.17-.593c.805.16 1.45.326 2.254.326.202 0 .402-.01.6-.026a4.89 4.89 0 0 1-.198-1.363c0-2.842 2.413-5.149 5.47-5.149.208 0 .414.016.619.038-.557-2.62-3.328-4.568-6.491-4.568zm4.729 7.712c.486 0 .805.327.805.65 0 .33-.319.652-.805.652-.32 0-.643-.322-.643-.651 0-.324.322-.65.643-.65zm3.539 0c.481 0 .804.327.804.65 0 .33-.323.652-.804.652-.319 0-.64-.322-.64-.651 0-.324.321-.65.64-.65zm-10.358-4.945c.482 0 .803.321.803.811 0 .488-.32.815-.803.815-.482 0-.969-.327-.969-.815 0-.49.487-.811.969-.811zm4.502 0c.485 0 .805.321.805.811 0 .488-.32.815-.805.815-.482 0-.966-.327-.966-.815 0-.49.484-.811.966-.811z"/>
    </defs>
    <use fill="#06D96A" fill-rule="evenodd" xlink:href="#a"/>
</svg>
