<svg xmlns="http://www.w3.org/2000/svg" xmlns:xlink="http://www.w3.org/1999/xlink" width="24" height="24" viewBox="0 0 24 24">
    <defs>
        <path id="a" d="M20.157 0H3.845A3.844 3.844 0 0 0 0 3.845v16.31A3.844 3.844 0 0 0 3.845 24h16.312A3.843 3.843 0 0 0 24 20.156V3.845A3.843 3.843 0 0 0 20.157 0"/>
    </defs>
    <g fill="none" fill-rule="evenodd">
        <mask id="b" fill="#fff">
            <use xlink:href="#a"/>
        </mask>
        <use fill="#00A0E8" xlink:href="#a"/>
        <path fill="#FEFEFE" d="M6.45 18.485c-3.733 0-4.837-2.933-2.992-4.537.615-.542 1.74-.807 2.34-.866 2.219-.219 4.272.625 6.695 1.804-1.704 2.215-3.873 3.599-6.043 3.599m13.328-3.376c-.957-.318-2.24-.804-3.67-1.318a19.086 19.086 0 0 0 1.995-5.007h-4.77V7.06h5.804v-.941h-5.804V3.294h-2.412c-.411 0-.411.407-.411.407v2.417H4.706v.94h5.804v1.726H5.804v.941h9.347a16.479 16.479 0 0 1-1.347 3.27C10.772 12 7.535 11.193 5.502 11.69c-1.3.318-2.137.887-2.63 1.482-2.258 2.73-.638 6.876 4.13 6.876 2.82 0 5.537-1.563 7.642-4.136 3.14 1.5 9.356 4.074 9.356 4.074v-3.67s-.78-.061-4.222-1.207" mask="url(#b)"/>
    </g>
</svg>
